<svg width="24" height="24" viewBox="0 0 24 24" fill="none" xmlns="http://www.w3.org/2000/svg">
<path d="M10.2002 20.2332C10.4331 20.4757 10.7126 20.6686 11.0219 20.8004C11.3312 20.9321 11.664 21 12.0002 21C12.3364 21 12.6692 20.9321 12.9785 20.8004C13.2878 20.6686 13.5673 20.4757 13.8002 20.2332" stroke="#9095A1" stroke-width="1.44" stroke-miterlimit="10" stroke-linecap="square"/>
<path d="M17.9998 11.4V8.94C17.9523 7.36935 17.3031 5.877 16.1864 4.77147C15.0697 3.66594 13.5709 3.03175 11.9998 3C10.4229 3.0453 8.92293 3.69198 7.80738 4.80753C6.69183 5.92308 6.04514 7.42303 5.99984 9V11.4C5.99984 14.1 3.83984 14.58 3.83984 16.08C3.83984 17.46 7.01984 18.54 11.9998 18.54C16.9798 18.54 20.1598 17.46 20.1598 16.08C20.1598 14.58 17.9998 14.1 17.9998 11.4Z" stroke="#9095A1" stroke-width="1.44" stroke-miterlimit="10" stroke-linecap="square"/>
</svg>
