<svg width="24" height="14" viewBox="0 0 24 14" fill="none" xmlns="http://www.w3.org/2000/svg">
<path d="M13.2498 2.49999C13.2498 2.30108 13.3289 2.11031 13.4695 1.96966C13.6102 1.82901 13.8009 1.74999 13.9998 1.74999L22.9998 1.74999C23.1988 1.74999 23.3895 1.82901 23.5302 1.96966C23.6708 2.11031 23.7498 2.30108 23.7498 2.49999C23.7498 2.6989 23.6708 2.88967 23.5302 3.03032C23.3895 3.17097 23.1988 3.24999 22.9998 3.24999L13.9998 3.24999C13.8009 3.24999 13.6102 3.17097 13.4695 3.03032C13.3289 2.88967 13.2498 2.6989 13.2498 2.49999ZM22.9998 6.24999L13.9998 6.24999C13.8009 6.24999 13.6102 6.32901 13.4695 6.46966C13.3289 6.61031 13.2498 6.80108 13.2498 6.99999C13.2498 7.1989 13.3289 7.38967 13.4695 7.53032C13.6102 7.67097 13.8009 7.74999 13.9998 7.74999L22.9998 7.74999C23.1988 7.74999 23.3895 7.67097 23.5302 7.53032C23.6708 7.38967 23.7498 7.1989 23.7498 6.99999C23.7498 6.80108 23.6708 6.61031 23.5302 6.46966C23.3895 6.32901 23.1988 6.24999 22.9998 6.24999ZM22.9998 10.75L16.2498 10.75C16.0509 10.75 15.8602 10.829 15.7195 10.9697C15.5789 11.1103 15.4998 11.3011 15.4998 11.5C15.4998 11.6989 15.5789 11.8897 15.7195 12.0303C15.8602 12.171 16.0509 12.25 16.2498 12.25L22.9998 12.25C23.1988 12.25 23.3895 12.171 23.5302 12.0303C23.6708 11.8897 23.7498 11.6989 23.7498 11.5C23.7498 11.3011 23.6708 11.1103 23.5302 10.9697C23.3895 10.829 23.1988 10.75 22.9998 10.75ZM13.9764 12.8125C14.0009 12.9079 14.0064 13.0072 13.9925 13.1047C13.9787 13.2023 13.9457 13.2961 13.8956 13.3809C13.8454 13.4657 13.7791 13.5398 13.7003 13.5989C13.6215 13.6581 13.5318 13.7011 13.4364 13.7256C13.3753 13.7421 13.3122 13.7503 13.2489 13.75C13.0826 13.7501 12.9209 13.6949 12.7894 13.593C12.6579 13.4912 12.5639 13.3485 12.5223 13.1875C11.9448 10.9431 9.67797 9.24999 7.2489 9.24999C4.81984 9.24999 2.55297 10.9422 1.97547 13.1875C1.92574 13.3802 1.8015 13.5452 1.63008 13.6463C1.45866 13.7474 1.2541 13.7763 1.0614 13.7266C0.868707 13.6768 0.703657 13.5526 0.602564 13.3812C0.50147 13.2097 0.472613 13.0052 0.522341 12.8125C1.0464 10.7772 2.56984 9.12905 4.50297 8.31249C3.75862 7.73917 3.21239 6.94725 2.94089 6.04779C2.66938 5.14833 2.68622 4.18645 2.98904 3.29704C3.29186 2.40763 3.86547 1.63532 4.62942 1.0884C5.39338 0.541485 6.30936 0.247406 7.2489 0.247406C8.18845 0.247406 9.10443 0.541485 9.86838 1.0884C10.6323 1.63532 11.2059 2.40763 11.5088 3.29704C11.8116 4.18645 11.8284 5.14833 11.5569 6.04779C11.2854 6.94725 10.7392 7.73917 9.99484 8.31249C11.9289 9.12905 13.4523 10.7772 13.9764 12.8125ZM7.24984 7.74999C7.84319 7.74999 8.4232 7.57404 8.91655 7.2444C9.4099 6.91475 9.79442 6.44622 10.0215 5.89804C10.2485 5.34986 10.308 4.74666 10.1922 4.16472C10.0764 3.58278 9.79072 3.04823 9.37116 2.62867C8.9516 2.20911 8.41706 1.92339 7.83511 1.80763C7.25317 1.69188 6.64997 1.75129 6.10179 1.97835C5.55361 2.20541 5.08508 2.58993 4.75543 3.08328C4.42579 3.57663 4.24984 4.15665 4.24984 4.74999C4.24984 5.54564 4.56591 6.3087 5.12852 6.87131C5.69113 7.43392 6.45419 7.74999 7.24984 7.74999Z" fill="none"/>
</svg>
